<?xml version="1.0" encoding="UTF-8"?><svg xmlns="http://www.w3.org/2000/svg" style="display:none"><symbol id="file-type-apk" viewBox="0 0 1024 1024"><defs><style type="text/css"></style></defs><path d="M742.4 163.84c-5.12 0-15.36 5.12-20.48 15.36L680.96 256c-51.2-30.72-107.52-51.2-168.96-51.2-61.44 0-117.76 15.36-163.84 46.08l-46.08-71.68c-5.12-10.24-15.36-15.36-20.48-10.24-5.12 0-5.12-5.12-10.24 0h-5.12c-10.24 10.24-15.36 25.6-5.12 35.84L307.2 286.72C245.76 343.04 204.8 419.84 204.8 512h614.4c0-87.04-35.84-168.96-97.28-225.28L768 204.8c5.12-10.24 0-25.6-10.24-35.84h-5.12c0-5.12-5.12-5.12-10.24-5.12zM373.76 358.4c25.6 0 46.08 20.48 46.08 46.08s-20.48 46.08-46.08 46.08-46.08-20.48-46.08-46.08 20.48-46.08 46.08-46.08z m276.48 0c25.6 0 46.08 20.48 46.08 46.08s-20.48 46.08-46.08 46.08-46.08-20.48-46.08-46.08 20.48-46.08 46.08-46.08zM204.8 537.6V819.2h614.4v-281.6H204.8z" fill="#A4C639" p-id="4224"></path></symbol><symbol id="file-type-archive" viewBox="0 0 1024 1024"><path d="M97.9 376h828.4v269.2H97.9z" fill="#F95F5D" p-id="8434"></path><path d="M926.3 376V161.5c0-26.6-23.8-50.3-52.1-50.3H149.9c-28.3 0-52.1 23.7-52.1 50.3V376h828.5z m0 0" fill="#55C7F7" p-id="8435"></path><path d="M97.9 645.2v214.5c0 26.6 23.6 50.3 51.7 50.3h725c28.1 0 51.7-23.7 51.7-50.3V645.2H97.9z m0 0" fill="#7ECF3B" p-id="8436"></path><path d="M421.8 111.2h184.9V910H421.8z" fill="#FDAF42" p-id="8437"></path><path d="M606.7 457.4v112.4H413V457.4h193.7m31.1-45.9H381.9c-4.4 0-11.8 4.4-11.8 11.8v179c0 4.4 4.4 11.8 11.8 11.8h255.9c4.4 0 11.8-4.4 11.8-11.8v-179c-2.9-8.8-7.4-11.8-11.8-11.8z m0 0" fill="#FFFFFF" p-id="8438"></path></symbol><symbol id="file-type-audio" viewBox="0 0 1024 1024"><path d="M983.38 306.44l-442.628 81.458a17.454 17.454 0 0 0-14.302 17.162v375.822c-31.38-18.59-72.608-24.724-113.914-13.666-74.146 19.85-120.418 87.528-103.352 151.164s91.006 99.13 165.152 79.28c65.884-17.638 109.718-73.042 106.704-129.814h0.188V469.482l367.992-67.74v289.742c-31.38-18.59-72.61-24.724-113.914-13.666-74.146 19.85-120.418 87.528-103.352 151.164 17.066 63.636 91.006 99.13 165.152 79.28 64.794-17.348 108.296-71.218 106.852-126.998H1004l0.008-457.66c0.002-10.906-9.896-19.14-20.628-17.164z" fill="#707AFA" p-id="33499"></path><path d="M474.336 977.676c-74.146 19.85-148.086-15.644-165.152-79.28a103.588 103.588 0 0 1-3.038-16.91c-1.166 12.202-0.254 24.62 3.038 36.894 17.066 63.636 91.006 99.13 165.152 79.28 65.884-17.638 109.718-73.042 106.704-129.814h0.188v-19.984h-0.188c3.014 56.774-40.82 112.176-106.704 129.814zM1004 761.28h-0.042c1.444 55.78-42.058 109.652-106.852 126.998-74.146 19.85-148.086-15.644-165.152-79.28a103.588 103.588 0 0 1-3.038-16.91c-1.166 12.202-0.254 24.62 3.038 36.894 17.066 63.636 91.006 99.13 165.152 79.28 64.794-17.348 108.296-71.218 106.852-126.998H1004l0.008-457.66v-0.006L1004 761.28z" fill="#6770E6" p-id="33500"></path><path d="M487.55 167.318c-30.86-99.616-129.14-131.888-191.96-142.34-15.806-2.62-31.02-3.864-41.386-4.454a12.668 12.668 0 0 0-13.394 12.65v378.478c-31.38-18.59-72.61-24.726-113.916-13.668-74.146 19.85-120.418 87.528-103.352 151.164 17.066 63.636 91.006 99.13 165.152 79.28 65.884-17.638 109.716-73.042 106.704-129.814h0.192V150.392c35.96 2.658 84.72 19.644 130.94 79.312 67.62 87.246 154.7 51.036 154.7 51.036-39.7 0.002-75.24-53.872-93.68-113.422z" fill="#FF8354" p-id="33501"></path><path d="M188.692 607.944c-74.146 19.85-148.086-15.644-165.152-79.28a103.55 103.55 0 0 1-3.008-16.66c-1.204 12.282-0.306 24.79 3.008 37.146 17.066 63.636 91.006 99.13 165.152 79.28 65.884-17.638 109.716-73.042 106.704-129.814h0.192v-20.486h-0.192c3.014 56.774-40.82 112.176-106.704 129.814z" fill="#E0734A" p-id="33502"></path><path d="M126.894 437.954c41.306-11.058 82.536-4.924 113.916 13.668v-39.966c-31.38-18.59-72.61-24.726-113.916-13.668-71.43 19.122-116.964 82.634-104.95 144.156 9.03-47.094 49.064-89.228 104.95-104.19z" fill="#FFAC8C" p-id="33503"></path><path d="M540.752 427.864l442.628-81.456c10.728-1.974 20.62 6.252 20.628 17.148v-39.952c0-10.904-9.896-19.138-20.628-17.162l-442.628 81.456a17.456 17.456 0 0 0-14.302 17.162v39.966a17.454 17.454 0 0 1 14.302-17.162zM835.308 717.784c41.306-11.058 82.534-4.924 113.914 13.666v-39.966c-31.38-18.59-72.61-24.724-113.914-13.666-71.43 19.124-116.964 82.634-104.95 144.156 9.03-47.094 49.064-89.228 104.95-104.19zM412.536 807.182c41.304-11.058 82.532-4.924 113.914 13.666v-39.966c-31.38-18.59-72.608-24.724-113.914-13.666-71.43 19.124-116.964 82.634-104.948 144.156 9.03-47.092 49.064-89.228 104.948-104.19z" fill="#8F95E6" p-id="33504"></path><path d="M244.204 54.496c10.366 0.59 25.582 1.834 41.386 4.454 62.82 10.452 161.1 42.724 191.96 142.34 10.292 33.238 25.916 64.698 44.612 86.018 33.838 3.914 59.066-6.566 59.066-6.566-39.7 0-75.24-53.874-93.68-113.424-30.86-99.616-129.14-131.888-191.96-142.34-15.806-2.618-31.02-3.864-41.386-4.454a12.668 12.668 0 0 0-13.394 12.65v21.598a12.806 12.806 0 0 1 3.396-0.276z" fill="#FFAC8C" p-id="33505"></path><path d="M865.658 118.83c-9.74 0-17.636-7.89-17.636-17.62 0-9.378-7.082-17.566-16.448-18.172-10.264-0.664-18.796 7.456-18.796 17.568v0.604c0 9.732-7.896 17.62-17.636 17.62-9.386 0-17.58 7.076-18.186 16.434-0.664 10.254 7.462 18.78 17.582 18.78h0.604c9.74 0 17.636 7.89 17.636 17.62 0 9.378 7.082 17.566 16.448 18.172 10.264 0.664 18.796-7.456 18.796-17.568v-0.604c0-9.732 7.896-17.62 17.636-17.62h0.604c10.12 0 18.248-8.524 17.584-18.78-0.608-9.358-8.804-16.434-18.188-16.434zM188.01 811.662c-13.588 0-24.602-11.006-24.602-24.582 0-13.082-9.88-24.504-22.946-25.35-14.318-0.926-26.22 10.402-26.22 24.508v0.842c0 13.576-11.014 24.582-24.602 24.582-13.092 0-24.524 9.872-25.37 22.926-0.928 14.306 10.41 26.198 24.528 26.198h0.844c13.588 0 24.602 11.006 24.602 24.582 0 13.082 9.88 24.504 22.946 25.35 14.318 0.926 26.22-10.402 26.22-24.508v-0.842c0-13.576 11.014-24.582 24.602-24.582h0.844c14.118 0 25.456-11.892 24.53-26.198-0.85-13.054-12.282-22.926-25.376-22.926z" fill="#69EBFC" p-id="33506"></path></symbol><symbol id="file-type-css" viewBox="0 0 1024 1024"><defs><style type="text/css"></style></defs><path d="M847.872 240.128v688c0 26.56-21.408 48-48 48h-576c-26.56 0-48-21.44-48-48v-832c0-26.592 21.44-48 48-48h432z" fill="#E9EDED" p-id="13722"></path><path d="M160 768.128v160c0 35.456 28.544 64 64 64h576c35.456 0 64-28.544 64-64v-160H160z" fill="#4BBFEB" p-id="13723"></path><path d="M847.872 240.128h-144c-26.56 0-48-21.44-48-48v-144" fill="#4BBFEB" p-id="13724"></path><path d="M432.256 320.128c-35.2 0-64 28.8-64 64v32c0 18.016-14.016 32-32 32a16 16 0 0 0-15.936 12.992 16 16 0 0 0 0 0.064 16 16 0 0 0 4.736 14.56 16 16 0 0 0 2.496 1.92 16 16 0 0 0 4.448 1.92 16 16 0 0 0 3.136 0.48 16 16 0 0 0 1.12 0.064c17.984 0 32 13.984 32 32v32c0 35.2 28.8 64 64 64a16 16 0 1 0 0-32c-18.016 0-32-13.984-32-32v-32c0-19.136-8.736-36.256-22.208-48a63.68 63.68 0 0 0 22.208-48v-32c0-18.016 13.984-32 32-32a16 16 0 1 0 0-32z m157.856 0a16 16 0 0 0 1.632 32c18.016 0 32 13.984 32 32v32c0 19.168 8.736 36.224 22.208 48-13.44 11.744-22.208 28.864-22.208 48v32c0 18.016-13.984 32-32 32a16 16 0 1 0 0 32c35.2 0 64-28.8 64-64v-32c0-18.016 14.016-32 32-32a16 16 0 0 0 10.368-3.616 16 16 0 0 0 1.216-1.152 16 16 0 0 0-11.584-27.232c-17.984 0-32-13.984-32-32v-32c0-35.2-28.8-64-64-64a16 16 0 0 0-1.6 0z" fill="#4BBFEB" p-id="13725"></path><path d="M334.496 800.128a16 16 0 0 0-3.36 0.672c-41.664 3.712-75.008 37.44-75.008 79.328 0 42.08 33.696 75.904 75.616 79.296a16 16 0 0 0 4.64 0.704h32a16 16 0 1 0 0-32h-29.824c-28.544 0-50.432-21.44-50.432-48s21.888-48 50.432-48h29.568a16 16 0 1 0 0-32h-32a16 16 0 0 0-1.6 0z m128 0a16 16 0 0 0-1.984 0.384c-24.64 1.92-44.384 22.528-44.384 47.616 0 25.28 20.064 46.08 44.992 47.68a16 16 0 0 0 3.008 0.32h32c9.152 0 16 6.848 16 16 0 9.152-6.848 16-16 16h-64a16 16 0 1 0 0 32h64a16 16 0 0 0 3.296-0.384 48.096 48.096 0 0 0 44.704-47.616c0-25.152-19.84-45.888-44.576-47.68a16 16 0 0 0-3.424-0.32h-32a15.616 15.616 0 0 1-16-16c0-9.152 6.848-16 16-16h64a16 16 0 1 0 0-32h-62.88a16 16 0 0 0-1.12 0 16 16 0 0 0-1.6 0z m159.744 0a16 16 0 0 0-1.984 0.384c-24.64 1.92-44.384 22.528-44.384 47.616 0 25.28 20.096 46.08 44.992 47.68a16 16 0 0 0 3.008 0.32h32c9.152 0 16 6.848 16 16 0 9.152-6.848 16-16 16h-64a16 16 0 1 0 0 32h64a16 16 0 0 0 3.328-0.384 48.096 48.096 0 0 0 44.672-47.616c0-25.152-19.84-45.888-44.544-47.68a16 16 0 0 0-3.456-0.32h-32a15.616 15.616 0 0 1-16-16c0-9.152 6.848-16 16-16h64a16 16 0 1 0 0-32h-62.88a16 16 0 0 0-1.12 0 16 16 0 0 0-1.6 0z" fill="#E9EDED" p-id="13726"></path></symbol><symbol id="file-type-deb" viewBox="0 0 1024 1024"><defs><style type="text/css"></style></defs><path d="M576.256 535.1936c-13.568 0.2048 2.56 7.0144 20.2752 9.728 4.9152-3.7888 9.3696-7.68 13.312-11.4176a101.4272 101.4272 0 0 1-33.5872 1.6896M649.1136 517.0688c8.0896-11.1616 13.9776-23.3984 16.0256-35.9936-1.792 8.96-6.656 16.7424-11.264 24.9856-25.3952 15.9744-2.4064-9.5232 0-19.2-27.2896 34.3552-3.7888 20.5824-4.7616 30.208M675.9936 447.0784c1.6384-24.4224-4.8128-16.7424-6.9632-7.3728 2.56 1.28 4.5056 17.2032 6.9632 7.3728M524.8 112.9472c7.2192 1.3312 15.616 2.304 14.4384 4.096 7.936-1.792 9.728-3.3792-14.4384-4.096" fill="#D70751" p-id="4373"></path><path d="M539.2384 116.992l-5.12 1.024 4.7616-0.3584 0.3584-0.6656" fill="#D70751" p-id="4374"></path><path d="M765.1328 456.3456c0.8192 21.9648-6.4 32.6144-12.9024 51.456l-11.776 5.8368c-9.5744 18.688 0.9728 11.8784-5.888 26.6752-15.0016 13.312-45.5168 41.728-55.296 44.288-7.0656-0.1536 4.864-8.3968 6.4-11.6224-20.0192 13.824-16.0768 20.6848-46.7456 29.0304l-0.9216-1.9968c-75.6736 35.6352-180.7872-34.9184-179.4048-131.1744-0.8192 6.0928-2.304 4.608-3.9936 7.0144-3.8912-49.5104 22.8864-99.2768 68.0448-119.552 44.1856-21.9136 95.9488-12.9024 127.5904 16.5888-17.408-22.784-51.968-46.8992-92.9792-44.6464-40.1408 0.6144-77.7216 26.112-90.2656 53.8624-20.5824 12.9536-22.9888 49.92-31.9488 56.6784-12.032 88.6784 22.6816 126.976 81.5104 172.032 9.216 6.2464 2.56 7.168 3.84 11.9296a159.4368 159.4368 0 0 1-52.1216-39.8336c7.7824 11.4176 16.2304 22.528 27.136 31.232-18.432-6.2464-43.008-44.6464-50.2272-46.1824 31.744 56.832 128.8192 99.6864 179.6096 78.4384-23.5008 0.8704-53.3504 0.512-79.8208-9.2672-11.0592-5.7344-26.1632-17.5616-23.4496-19.7632 69.3248 25.9072 141.0048 19.6096 201.0112-28.5184 15.2576-11.8784 31.9488-32.1024 36.7616-32.3584-7.2704 10.9056 1.2288 5.2224-4.352 14.848 15.2064-24.5248-6.6048-9.984 15.7184-42.3424l8.2944 11.3664c-3.072-20.3776 25.2928-45.1072 22.3744-77.312 6.5024-9.8816 7.2704 10.5984 0.3584 33.28 9.5744-25.1904 2.56-29.184 5.0176-49.9712 2.6624 6.9632 6.144 14.3872 7.936 21.76-6.2464-24.32 6.4-40.96 9.5232-55.04-3.072-1.3824-9.6256 10.752-11.1104-17.92 0.2048-12.4928 3.4304-6.5536 4.7104-9.6256-2.4576-1.4336-8.8576-10.9568-12.8-29.2864 2.8672-4.3008 7.5776 11.1616 11.4176 11.776-2.4576-14.5408-6.7072-25.6512-6.912-36.864-11.264-23.552-3.9936 3.1744-13.1072-10.0864-11.9808-37.376 9.9328-8.704 11.4176-25.6 18.176 26.2656 28.5184 67.072 33.28 83.968a344.064 344.064 0 0 0-16.64-59.904c5.5296 2.3552-8.9088-42.3424 7.168-12.8-17.152-63.0272-73.3696-122.0096-125.1328-149.6576 6.3488 5.7856 14.336 13.056 11.4688 14.2336-25.7536-15.36-21.1968-16.5376-24.8832-23.04-20.992-8.4992-22.3744 0.7168-36.2496 0-39.4752-20.8896-47.104-18.688-83.456-31.7952l1.6384 7.68c-26.1632-8.704-30.464 3.328-58.7776 0.0512-1.7408-1.3312 9.0624-4.864 17.92-6.144-25.2928 3.328-24.064-4.9664-48.8448 0.9216 6.0928-4.3008 12.544-7.168 19.0464-10.752-20.6336 1.2288-49.2544 11.9808-40.448 2.2016-33.6384 15.0528-93.44 36.1472-126.976 67.584l-1.024-7.0656c-15.4112 18.432-67.072 55.1424-71.168 79.0528l-4.096 0.9216c-8.0384 13.568-13.2096 28.928-19.5584 42.8544-10.4448 17.8176-15.36 6.8608-13.824 9.6256-20.5824 41.728-30.8224 76.8-39.68 105.5744 6.2976 9.3696 0.1536 56.576 2.56 94.3616-10.3424 186.624 130.9696 367.8208 285.44 409.6 22.6304 8.1408 56.32 7.8336 84.9408 8.6528-33.792-9.6768-38.1952-5.12-71.0656-16.5888-23.7568-11.2128-28.9792-23.9616-45.7728-38.5536l6.656 11.776c-32.9728-11.6736-19.2-14.4384-46.0288-22.9376l7.1168-9.3184c-10.7008-0.768-28.3136-17.9712-33.1264-27.5456l-11.7248 0.512c-14.0288-17.408-21.504-29.8496-20.992-39.5264l-3.7376 6.7072c-4.3008-7.3216-51.712-65.024-27.136-51.5584-4.5568-4.1984-10.5984-6.8096-17.2032-18.7904l5.0176-5.7344c-11.8272-15.2064-21.8112-34.7136-21.0432-41.216 6.2976 8.4992 10.7008 10.0864 15.0528 11.5712-29.9008-74.1888-31.5904-4.096-54.272-75.52l4.8128-0.3584c-3.6352-5.5296-5.888-11.52-8.8576-17.408l2.0992-20.7872c-21.504-24.8832-5.9904-105.8304-2.9184-150.1696 2.1504-18.0736 17.9712-37.2736 30.0032-67.3792l-7.3216-1.28c13.9776-24.4224 79.9744-98.0992 110.4896-94.3104 14.848-18.5856-2.9184-0.1024-5.8368-4.7616 32.512-33.6384 42.752-23.7568 64.6656-29.7984 23.6544-14.08-20.2752 5.4784-9.0624-5.376 40.8576-10.4448 28.9792-23.7568 82.3296-29.0304 5.632 3.1744-13.056 4.9152-17.7664 9.0624 34.0992-16.64 107.8272-12.8512 155.7504 9.2672 55.6032 26.0096 118.016 102.7584 120.5248 175.0528l2.7648 0.7168c-1.3824 28.7232 4.4032 61.952-5.632 92.4672l6.8608-14.4384" fill="#D70751" p-id="4375"></path><path d="M428.0832 553.8304l-1.8944 9.5232c8.9088 12.1344 15.9744 25.2416 27.392 34.7136-8.192-15.9744-14.2848-22.5792-25.4976-44.2368M449.1776 553.0112c-4.7104-5.2224-7.5264-11.52-10.6496-17.7664 3.0208 11.008 9.1136 20.48 14.848 30.1056l-4.1984-12.288M822.3744 471.9104l-1.9968 5.0176a241.3568 241.3568 0 0 1-23.6544 75.4688c13.3632-25.088 22.016-52.6336 25.6-80.4864M527.4624 106.496c9.216-3.3792 22.528-1.8944 32.256-4.096-12.6464 1.024-25.2928 1.6896-37.7344 3.328l5.4784 0.7168M205.2608 277.8112c2.0992 19.5584-14.7456 27.136 3.7376 14.2336 9.8816-22.272-3.8912-6.144-3.7376-14.2336M183.552 368.4352c4.2496-13.056 5.0176-20.9408 6.656-28.4672-11.776 15.0016-5.4272 18.2272-6.656 28.4672" fill="#D70751" p-id="4376"></path></symbol><symbol id="file-type-dll" viewBox="0 0 1024 1024"><path d="M332.799002 686.081014m-332.799002 0a332.799002 332.799002 0 1 0 665.598003 0 332.799002 332.799002 0 1 0-665.598003 0Z" fill="#DFDFF2" p-id="23847"></path><path d="M883.19735 1024h-639.99808A141.055577 141.055577 0 0 1 102.399693 883.200422v-742.397772A141.055577 141.055577 0 0 1 243.19927 0.003072h516.350451a89.087733 89.087733 0 0 1 63.231811 25.599923l189.695431 189.695431A38.399885 38.399885 0 0 1 1023.996928 243.202342v639.99808a141.055577 141.055577 0 0 1-140.799578 140.799578zM243.19927 76.802842A63.999808 63.999808 0 0 0 179.199462 140.80265v742.397772A63.999808 63.999808 0 0 0 243.19927 947.20023h639.99808a63.999808 63.999808 0 0 0 63.999808-63.999808V259.074295l-179.199462-179.199463a12.799962 12.799962 0 0 0-8.447975-3.07199z" fill="#434260" p-id="23848"></path><path d="M309.759071 399.105875h58.623824c69.375792 0 109.055673 38.399885 109.055673 112.127663s-39.679881 113.919658-107.263679 113.919659H309.759071z m56.319831 196.863409c48.383855 0 74.495777-28.671914 74.495776-84.735746s-25.599923-83.19975-74.495776-83.19975h-20.479939v167.935496zM524.542426 399.105875h35.583894v195.839412h95.487713v30.20791h-131.071607zM695.805913 399.105875h35.583893v195.839412h95.487713v30.20791h-131.071606z" fill="#434260" p-id="23849"></path></symbol><symbol id="file-type-doc" viewBox="0 0 1024 1024"><defs><style type="text/css"></style></defs><path d="M179 64h468.5l223 225.5V935c0 13.807-11.193 25-25 25H179c-13.807 0-25-11.193-25-25V89c0-13.807 11.193-25 25-25z" fill="#4A8DFF" p-id="6921"></path><path d="M647.5 64v200.5c0 13.807 11.193 25 25 25h198L647.5 64z" fill="#E5F0FF" p-id="6922"></path><path d="M693.153 784.6C714.698 808.196 754 792.953 754 761V389h-70v281.758L544.847 518.35c-13.879-15.201-37.815-15.201-51.694 0L354 670.758V389h-70v372c0 31.954 39.302 47.197 60.847 23.6L519 593.857 693.153 784.6z" fill="#FFFFFF" p-id="6923"></path></symbol><symbol id="file-type-document" viewBox="0 0 1024 1024"><path d="M304 448h416v64h-416zM304 576h416v64h-416zM304 704h416v64h-416zM304 256h192v64h-192z" fill="#2A2A3B" p-id="6588"></path><path d="M80 0v64h800v896h-736V128h-64v896h864V0h-864z" fill="#2A2A3B" p-id="6589"></path></symbol><symbol id="file-type-docx" viewBox="0 0 1024 1024"><defs><style type="text/css"></style></defs><path d="M179 64h468.5l223 225.5V935c0 13.807-11.193 25-25 25H179c-13.807 0-25-11.193-25-25V89c0-13.807 11.193-25 25-25z" fill="#4A8DFF" p-id="6921"></path><path d="M647.5 64v200.5c0 13.807 11.193 25 25 25h198L647.5 64z" fill="#E5F0FF" p-id="6922"></path><path d="M693.153 784.6C714.698 808.196 754 792.953 754 761V389h-70v281.758L544.847 518.35c-13.879-15.201-37.815-15.201-51.694 0L354 670.758V389h-70v372c0 31.954 39.302 47.197 60.847 23.6L519 593.857 693.153 784.6z" fill="#FFFFFF" p-id="6923"></path></symbol><symbol id="file-type-exe" viewBox="0 0 1024 1024"><path d="M106.666667 320h810.666666v-85.333333a10.666667 10.666667 0 0 0-10.666666-10.666667H117.333333a10.666667 10.666667 0 0 0-10.666666 10.666667v85.333333z m10.666666 480h789.333334a10.666667 10.666667 0 0 0 10.666666-10.666667V341.333333H106.666667v448a10.666667 10.666667 0 0 0 10.666666 10.666667z" fill="#FFFFFF" p-id="21353"></path><path d="M154.666667 272m-16 0a16 16 0 1 0 32 0 16 16 0 1 0-32 0Z" fill="#C8C6C4" p-id="21354"></path><path d="M208 272m-16 0a16 16 0 1 0 32 0 16 16 0 1 0-32 0Z" fill="#C8C6C4" p-id="21355"></path><path d="M261.333333 272m-16 0a16 16 0 1 0 32 0 16 16 0 1 0-32 0Z" fill="#C8C6C4" p-id="21356"></path><path d="M320 800H117.333333a10.666667 10.666667 0 0 1-10.666666-10.666667V341.333333h213.333333v458.666667z" fill="#EDEBE9" p-id="21357"></path><path d="M256 501.333333h-85.333333a10.666667 10.666667 0 1 1 0-21.333333h85.333333a10.666667 10.666667 0 1 1 0 21.333333z m0-64h-85.333333a10.666667 10.666667 0 1 1 0-21.333333h85.333333a10.666667 10.666667 0 1 1 0 21.333333z m0 128h-85.333333a10.666667 10.666667 0 1 1 0-21.333333h85.333333a10.666667 10.666667 0 1 1 0 21.333333z m320-64H394.666667a10.666667 10.666667 0 1 1 0-21.333333h181.333333a10.666667 10.666667 0 1 1 0 21.333333z m0-64H394.666667a10.666667 10.666667 0 1 1 0-21.333333h181.333333a10.666667 10.666667 0 1 1 0 21.333333z m0 128H394.666667a10.666667 10.666667 0 1 1 0-21.333333h181.333333a10.666667 10.666667 0 1 1 0 21.333333z m0 64H394.666667a10.666667 10.666667 0 1 1 0-21.333333h181.333333a10.666667 10.666667 0 1 1 0 21.333333z m0 64H394.666667a10.666667 10.666667 0 1 1 0-21.333333h181.333333a10.666667 10.666667 0 1 1 0 21.333333z" fill="#C8C6C4" p-id="21358"></path><path d="M842.666667 693.333333H661.333333a21.333333 21.333333 0 0 1-21.333333-21.333333V437.333333a21.333333 21.333333 0 0 1 21.333333-21.333333h181.333334a21.333333 21.333333 0 0 1 21.333333 21.333333v234.666667a21.333333 21.333333 0 0 1-21.333333 21.333333z" fill="#69AFE5" p-id="21359"></path><path d="M906.666667 202.666667H117.333333c-17.642667 0-32 14.357333-32 32v554.666666c0 17.642667 14.357333 32 32 32h789.333334c17.642667 0 32-14.357333 32-32V234.666667c0-17.642667-14.357333-32-32-32z m-789.333334 21.333333h789.333334a10.666667 10.666667 0 0 1 10.666666 10.666667v85.333333H106.666667v-85.333333a10.666667 10.666667 0 0 1 10.666666-10.666667z m789.333334 576H117.333333a10.666667 10.666667 0 0 1-10.666666-10.666667V341.333333h810.666666v448a10.666667 10.666667 0 0 1-10.666666 10.666667z" fill="#605E5C" opacity=".64" p-id="21360"></path></symbol><symbol id="file-type-expression" viewBox="0 0 1024 1024"><path d="M879.846 112.077c17.673 0 32 14.327 32 32v736c0 17.673-14.327 32-32 32H750.484c0-35.346 28.654-64 64-64l33.362-0.001v-672h-33.532c-34.992 0-63.426-28.082-63.991-62.94l-0.009-1.06h129.532z m-602.92 0c0 35.346-28.654 64-64 64l-37.08-0.001v672h36.989c34.993 0 63.426 28.084 63.991 62.943l0.009 1.058H143.846c-17.673 0-32-14.327-32-32v-736c0-17.673 14.327-32 32-32h133.08zM459.32 708.59c17.674 0 32 14.327 32 32 0 17.673-14.326 32-32 32-17.673 0-32-14.327-32-32 0-17.673 14.327-32 32-32z m132.869 0c17.673 0 32 14.327 32 32 0 17.673-14.327 32-32 32-17.673 0-32-14.327-32-32 0-17.673 14.327-32 32-32z m132.869 0c17.673 0 32 14.327 32 32 0 17.673-14.327 32-32 32-17.674 0-32-14.327-32-32 0-17.673 14.326-32 32-32zM441.6 254.144a32 32 0 0 1 14 14l148.017 290.764c-31.185 15.875-69.264 3.747-85.582-27.061l-0.487-0.94-90.466-177.71-90.465 177.71c-16.035 31.5-54.57 44.036-86.07 28.001l148.018-290.764c8.017-15.75 27.285-22.018 43.035-14z" fill="#000000" fill-opacity=".65" p-id="4224"></path></symbol><symbol id="file-type-file" viewBox="0 0 1024 1024"><path d="M854.6 288.6L639.4 73.4c-6-6-14.1-9.4-22.6-9.4H192c-17.7 0-32 14.3-32 32v832c0 17.7 14.3 32 32 32h640c17.7 0 32-14.3 32-32V311.3c0-8.5-3.4-16.7-9.4-22.7zM790.2 326H602V137.8L790.2 326z m1.8 562H232V136h302v216c0 23.2 18.8 42 42 42h216v494z" fill="#5C5C66"  p-id="24960"></path></symbol><symbol id="file-type-folder" viewBox="0 0 1024 1024"><path d="M918.673 883H104.327C82.578 883 65 867.368 65 848.027V276.973C65 257.632 82.578 242 104.327 242h814.346C940.422 242 958 257.632 958 276.973v571.054C958 867.28 940.323 883 918.673 883z" fill="#FFE9B4" p-id="7144"></path><path d="M512 411H65V210.37C65 188.597 82.598 171 104.371 171h305.92c17.4 0 32.71 11.334 37.681 28.036L512 411z" fill="#FFB02C" p-id="7145"></path><path d="M918.673 883H104.327C82.578 883 65 865.42 65 843.668V335.332C65 313.58 82.578 296 104.327 296h814.346C940.422 296 958 313.58 958 335.332v508.336C958 865.32 940.323 883 918.673 883z" fill="#FFCA28" p-id="7146"></path></symbol><symbol id="file-type-html" viewBox="0 0 1024 1024"><defs><style type="text/css"></style></defs><path d="M873.1648 102.4l-65.792 737.1776L511.488 921.6 216.576 839.68 150.8352 102.4z" fill="#E44D26" p-id="4525"></path><path d="M512 162.6624v696.2688l239.0016-66.304 56.2688-629.9648z" fill="#F16529" p-id="4526"></path><path d="M287.4368 277.3504l22.2208 249.2416H512V436.1216H392.3456L384 343.552H512V253.1328H285.2352zM512 670.976l-0.4096 0.1024-100.7104-27.136-6.4-72.192H313.7024l12.6464 142.0288 185.2416 51.4048 0.4096-0.1024z" fill="#EBEBEB" p-id="4527"></path><path d="M511.6928 765.1328l185.344-51.3536 1.3824-15.3088 21.248-238.08 2.2016-24.2688H511.6416v90.4704h111.4112l-10.496 117.248-100.864 27.2384zM731.904 323.2256l4.096-45.8752 2.2016-24.2176H511.6928V343.552h218.4192z" fill="#FFFFFF" p-id="4528"></path></symbol><symbol id="file-type-image" viewBox="0 0 1280 1024"><path d="M466.346667 658.346667l63.146666 58.453333 285.866667-263.68a148.053333 148.053333 0 0 1 196.693333 0l267.946667 247.466667V42.666667a42.666667 42.666667 0 0 0-42.666667-42.666667H42.666667a42.666667 42.666667 0 0 0-42.666667 42.666667v848.213333l251.306667-232.533333a161.706667 161.706667 0 0 1 215.04 0z" fill="#FFFFFF" p-id="37874"></path><path d="M42.666667 1024h154.453333l332.373333-307.2-63.146666-58.453333a161.706667 161.706667 0 0 0-213.333334 0L0 890.88V981.333333a42.666667 42.666667 0 0 0 42.666667 42.666667zM815.36 453.12l-285.866667 263.68 332.8 307.2H1237.333333a42.666667 42.666667 0 0 0 42.666667-42.666667v-280.746666l-267.946667-247.466667a148.053333 148.053333 0 0 0-196.693333 0z" fill="#99BF87" p-id="37875"></path><path d="M197.12 1024h665.173333l-332.8-307.2L197.12 1024z" fill="#99BF87" p-id="37876"></path><path d="M1237.333333 42.666667v938.666666H42.666667V42.666667h1194.666666m0-42.666667H42.666667a42.666667 42.666667 0 0 0-42.666667 42.666667v938.666666a42.666667 42.666667 0 0 0 42.666667 42.666667h1194.666666a42.666667 42.666667 0 0 0 42.666667-42.666667V42.666667a42.666667 42.666667 0 0 0-42.666667-42.666667z" fill="#4D4D4D" p-id="37877"></path><path d="M277.333333 277.333333m-128 0a128 128 0 1 0 256 0 128 128 0 1 0-256 0Z" fill="#F4CB5A" p-id="37878"></path></symbol><symbol id="file-type-java" viewBox="0 0 1024 1024"><defs><style type="text/css"></style></defs><path d="M506.930109 189.733924c-47.314983 33.277285-100.939831 70.994475-129.673214 133.395134-49.906928 108.867661 102.121806 227.61911 108.619666 232.621002a8.38782 8.38782 0 0 0 10.505775-0.215995 8.39582 8.39582 0 0 0 2.061955-10.303779c-0.549988-1.059977-55.120816-107.0577-53.092859-183.100066 0.717985-26.485431 37.783188-56.530785 77.022345-88.340102 35.939228-29.135374 76.678353-62.156665 100.513841-100.785835 52.326876-85.030173-5.831875-168.640377-6.425862-169.476359a8.39982 8.39982 0 0 0-10.219781-2.819939 8.39982 8.39982 0 0 0-4.827896 9.439797c0.117997 0.553988 11.427754 55.8448-20.043569 112.809576-12.963721 23.539494-41.451109 43.575064-74.440401 66.776566z" fill="#DB380E" p-id="4677"></path><path d="M706.271826 227.229118a8.39382 8.39382 0 0 0-8.029827-14.549687c-8.037827 3.055934-196.827771 75.828371-196.827772 163.756482 0 60.612698 25.891444 92.63201 44.797038 116.015507 7.415841 9.171803 13.817703 17.091633 15.927658 23.853488 5.939872 19.485581-8.131825 54.704825-14.049698 66.632568a8.39182 8.39182 0 0 0 12.309735 10.625772c3.24593-2.255952 79.332296-56.050796 65.686589-120.863404-5.083891-24.635471-17.189631-42.635084-27.871401-58.518742-16.547644-24.609471-28.499388-42.385089-10.367778-75.216384 21.243544-38.295177 117.451477-111.007615 118.425456-111.7356z" fill="#DB380E" p-id="4678"></path><path d="M214.844384 596.459185c-3.23593 9.689792-1.707963 19.301585 4.413905 27.805403 20.46556 28.41339 92.958003 44.057053 204.131615 44.057054h0.013999c15.063676 0 30.967335-0.295994 47.256985-0.879982 177.746181-6.361863 243.672765-61.736674 246.392707-64.090623a8.39382 8.39382 0 0 0-7.701835-14.437689c-62.600655 17.091633-179.492144 23.159502-260.570402 23.159502-90.724051 0-136.927058-6.53586-148.238815-11.361756 5.803875-7.969829 41.603106-22.201523 85.964153-30.927335a8.39382 8.39382 0 0 0-1.619965-16.627643c-26.003441 0-156.41064 2.087955-170.042347 43.303069zM809.619606 539.424411c-36.661212 0-71.426465 18.375605-72.890434 19.153588a8.39782 8.39782 0 0 0 3.953915 15.795661c0.777983 0 78.20232 0.633986 85.214169 44.871036 6.211867 38.16318-73.256426 99.997852-104.401757 120.605409a8.39382 8.39382 0 1 0 6.379863 15.207673c7.391841-1.581966 180.808115-39.797145 162.472509-140.764976-11.18576-61.878671-50.076924-74.868391-80.728265-74.868391zM690.692161 727.49437a8.39982 8.39982 0 0 0-3.433926-8.413819l-41.581107-29.125374a8.419819 8.419819 0 0 0-6.96985-1.235974c-0.433991 0.109998-43.917056 11.541752-107.0477 18.551602-25.055462 2.80994-53.118859 4.293908-81.162257 4.293907-63.114644 0-104.381757-7.415841-110.391628-12.855723-0.795983-1.527967-0.543988-2.221952-0.401991-2.607944 1.091977-3.035935 6.943851-6.643857 10.715769-8.071827a8.39182 8.39182 0 0 0-4.881895-16.031655c-41.711104 10.065784-62.106666 24.141481-60.622697 41.835101 2.635943 31.371326 75.298382 47.47298 136.727062 51.728888 8.83381 0.603987 18.387605 0.90998 28.38939 0.909981h0.016c102.145805 0 233.094992-32.049311 234.402964-32.375305a8.36982 8.36982 0 0 0 6.241866-6.601858zM377.208896 794.820924a8.38382 8.38382 0 0 0 3.427926-9.527796c-1.113976-3.585923-4.467904-5.941872-8.235823-5.891873-5.58988 0.147997-54.696825 2.363949-58.134751 33.629278-1.039978 9.343799 1.635965 17.881616 7.957829 25.371454 17.631621 20.895551 65.226599 33.315284 145.478875 37.967185 9.493796 0.569988 19.137589 0.855982 28.667384 0.855981 102.027808 0 170.742332-31.945314 173.62027-33.305284a8.39382 8.39382 0 0 0 0.787983-14.753683l-52.548871-32.079311a8.447819 8.447819 0 0 0-6.08587-1.053977c-0.331993 0.069998-33.697276 6.98985-84.050194 13.825703-9.527795 1.295972-21.459539 1.953958-35.459238 1.953958-50.298919 0-106.245717-8.217823-116.975487-13.599708-0.155997-1.003978 0.041999-2.279951 1.549967-3.391927z" fill="#73A1FB" p-id="4679"></path><path d="M448.819357 973.679081c233.702979-0.197996 359.134284-41.759103 383.297765-67.912541 8.553816-9.251801 9.477796-18.011613 8.751812-23.73349-1.795961-14.079698-14.621686-22.699512-16.075654-23.635492-3.507925-2.255952-8.215823-1.665964-10.951765 1.489968-2.729941 3.155932-2.79394 7.767833-0.053999 10.921765 1.473968 1.895959 2.32595 5.069891-1.983957 9.383799-9.659792 9.021806-107.087699 36.407218-269.306214 44.635041-22.221523 1.153975-45.529022 1.741963-69.270512 1.745962-145.24288 0-251.538596-19.895573-265.492296-31.487323 5.377884-7.727834 42.977077-20.073569 82.962218-27.057419a8.39182 8.39182 0 0 0-2.565945-16.589644c-1.127976 0.153997-4.955894 0.381992-9.387799 0.653986-65.974583 4.027913-142.214945 13.005721-146.192859 46.998991-1.207974 10.357777 1.86996 19.761575 9.151804 27.945399 17.817617 20.01957 69.030517 46.636998 307.109402 46.636998l0.007999 0.004z" fill="#73A1FB" p-id="4680"></path><path d="M878.020136 913.136382a8.38382 8.38382 0 0 0-9.671792 1.903959c-0.341993 0.369992-35.479238 37.111203-141.124968 58.686739-40.445131 8.103826-116.3635 12.213738-225.647152 12.213738-109.487648 0-213.671409-4.307907-214.709387-4.351907-4.351907-0.211995-8.073827 2.951937-8.665814 7.235845a8.39382 8.39382 0 0 0 6.367863 9.3158c1.083977 0.255995 110.267631 25.835445 259.552424 25.835445 71.600462 0 141.274965-5.813875 207.091551-17.289629 122.719363-21.513538 131.311179-82.36423 131.617172-84.944175a8.39382 8.39382 0 0 0-4.809897-8.605815z" fill="#73A1FB" p-id="4681"></path></symbol><symbol id="file-type-js" viewBox="0 0 1024 1024"><defs><style type="text/css"></style></defs><path d="M63.5 63.5h897v897h-897v-897zM887 746.6c-6.5-40.9-33.2-75.3-112.2-107.4-27.5-12.9-58.1-21.9-67.2-42.6-3.4-12.3-3.9-19.1-1.7-26.4 5.6-24.1 34.2-31.4 56.6-24.7 14.6 4.5 28 15.7 36.5 33.6 38.6-25.3 38.6-25.3 65.6-42-10.1-15.7-15.1-22.5-21.9-29.2-23.5-26.3-54.9-39.8-105.9-38.6l-26.4 3.3c-25.3 6.2-49.3 19.6-63.9 37.6-42.6 48.3-30.3 132.3 21.3 167.1 51 38.1 125.6 46.5 135.2 82.4 9 43.7-32.5 57.7-73.5 52.7-30.3-6.7-47.1-21.9-65.6-49.9l-68.4 39.3c7.8 17.9 16.8 25.8 30.3 41.4 65 65.6 227.6 62.3 256.8-37.5 1.1-3.4 9-26.4 2.8-61.7l1.6 2.6zM551.3 475.8h-84c0 72.4-0.3 144.4-0.3 217 0 46 2.4 88.3-5.2 101.3-12.3 25.8-44.1 22.5-58.5 17.9-14.8-7.3-22.3-17.4-31-32-2.4-3.9-4.1-7.3-4.7-7.3l-68.2 42c11.4 23.5 28 43.8 49.5 56.7 32 19.1 74.9 25.2 119.9 15.1 29.3-8.4 54.5-25.8 67.7-52.7 19.1-34.8 15-77.4 14.8-125.1 0.4-76.8 0-153.6 0-230.9v-2z" fill="#F5DD1E" p-id="15434"></path></symbol><symbol id="file-type-less" viewBox="0 0 1024 1024"><defs><style type="text/css"></style></defs><path d="M853.76 559.36c45.2096 15.872 67.84 43.008 67.84 81.3056 0 25.2928-9.3696 45.312-28.1088 60.16-18.688 14.848-45.312 24.064-80.0256 24.064-34.7136 0-66.816-10.0864-96.4096-26.624 0.3584-8.704 2.6624-18.3296 6.912-28.7744 4.2496-10.4448 9.216-18.688 15.0016-24.7808 27.1872 14.1312 50.8416 21.1968 70.912 21.1968 9.472 0 16.8448-1.536 21.9648-4.7616 5.12-3.2256 7.68-7.4752 7.68-12.9024 0-10.0864-7.8848-17.664-23.552-22.7328l-28.0576-10.5984c-42.496-15.5136-63.744-40.704-63.744-75.776 0-25.6 8.96-45.8752 26.7776-60.8768 17.8688-15.0016 41.9328-27.904 72.192-27.904 14.9504 0 31.4368 2.0992 49.4592 6.3488 18.0224 4.1984 32.768 14.592 44.3392 20.2752 0.7168 9.472-1.1776 19.8144-5.632 31.0784-4.4032 11.264-9.8304 19.3024-16.2816 24.0128-28.5696-12.8-52.3776-19.2-71.424-19.2-6.8096 0-11.9808 1.536-15.5648 4.5568a14.5408 14.5408 0 0 0-5.3248 11.6224c0 8.0896 6.4512 14.4896 19.4048 19.2l31.6416 11.1104zM627.8144 559.36c45.2608 15.872 67.84 43.008 67.84 81.3056 0 25.2928-9.3696 45.312-28.0576 60.16-18.688 14.848-45.3632 24.064-80.0768 24.064-34.6624 0-66.816-10.0864-96.3584-26.624 0.3072-8.704 2.6112-18.3296 6.8608-28.7744a78.336 78.336 0 0 1 15.0528-24.7808c27.1872 14.1312 50.8416 21.1968 70.912 21.1968 9.472 0 16.8448-1.536 21.9136-4.7616 5.12-3.2256 7.68-7.4752 7.68-12.9024 0-10.0864-7.8848-17.664-23.5008-22.7328l-28.0576-10.5984c-42.496-15.5136-63.744-40.704-63.744-75.776 0-25.6 8.9088-45.8752 26.7776-60.8768 17.8176-15.0016 41.8816-27.904 72.1408-27.904 14.9504 0 31.488 2.0992 49.4592 6.3488 18.0224 4.1984 32.768 14.592 44.3904 20.2752 0.6656 9.472-1.2288 19.8144-5.632 31.0784-4.4032 11.264-9.8304 19.3024-16.3328 24.0128-28.5696-12.8-52.3776-19.2-71.424-19.2-6.8096 0-11.9808 1.536-15.5648 4.5568a14.592 14.592 0 0 0-5.3248 11.6224c0 8.0896 6.4512 14.4896 19.456 19.2l31.5904 11.1104zM463.0528 562.944a121.344 121.344 0 0 0-7.3728-42.9568 96.256 96.256 0 0 0-21.1456-33.792 98.048 98.048 0 0 0-33.4336-22.272c-13.1072-5.376-27.8016-13.4656-44.0832-13.4656-19.4048 0-36.352 8.7552-50.7392 15.5136a97.024 97.024 0 0 0-35.7376 27.7504c-9.3184 11.776-16.3328 25.7024-20.8896 41.6768-4.608 16.0256-6.912 33.4336-6.912 52.2752 0 19.5072 1.8944 37.5808 5.632 54.0672 3.7376 16.4864 10.1376 30.7712 19.0976 42.9056 9.0112 12.1344 20.7872 21.5552 35.2256 28.2624 14.4384 6.7584 32.4096 11.9296 53.76 11.9296 39.4752 0 72.8064-11.4176 99.9936-30.6176-2.7136-19.456-9.6256-35.0208-20.7872-46.4896a266.1376 266.1376 0 0 1-36.864 11.264 137.984 137.984 0 0 1-28.16 3.4304c-16.2816 0-28.0064-4.1472-35.072-12.4928-7.1168-8.3456-11.008-18.176-11.6736-33.1264h132.608c4.352-14.1824 6.5536-33.28 6.5536-53.8624z m-139.6736 3.4816c1.024-17.152 4.096-35.584 9.3696-43.1104 5.2224-7.6288 13.2096-11.3664 24.064-11.3664 11.1104 0 19.456 3.9936 24.9856 12.0832 5.5808 8.0896 8.3456 24.3712 8.3456 36.864v5.5296H323.4304zM216.7296 657.408h-13.7728c-14.9504 0-20.5824-7.8848-20.5824-23.7056V343.04c0-17.5104-5.0688-29.7472-11.52-36.864-6.4512-7.0144-17.664-6.9632-33.6384-6.9632h-31.1296l-3.6352-0.0512v0.3072L102.4 342.7328v305.0496c0 24.2176 5.4272 41.984 15.1552 53.248 9.728 11.3152 26.112 16.896 49.2032 16.896 15.9744 0 34.2016-1.6384 54.5792-5.0176 1.024-3.3792 1.536-10.7008 1.536-21.8624 0-11.264-2.048-22.4256-6.144-33.6384z" fill="#5C6BC0" p-id="4826"></path></symbol><symbol id="file-type-md" viewBox="0 0 1024 1024"><defs><style type="text/css"></style></defs><path d="M538.311111 684.942222H450.844444v-170.666666l-87.466666 109.368888L275.911111 514.275556v170.666666H188.16V387.413333H275.626667l87.466666 109.368889 87.466667-109.368889h87.466667v297.528889zM730.737778 689.351111l-131.271111-153.173333h87.466666v-148.764445h87.466667v148.764445H861.866667z" fill="#1071E2" p-id="5125"></path><path d="M910.222222 170.666667c31.431111 0 56.888889 23.608889 56.888889 52.679111v605.752889C967.111111 858.197333 941.653333 881.777778 910.222222 881.777778H113.777778c-31.431111 0-56.888889-23.608889-56.888889-52.679111V223.345778C56.888889 194.247111 82.346667 170.666667 113.777778 170.666667h796.444444z m0 56.888889H113.777778v597.333333h796.444444V227.555556z" fill="#A8CFFF" p-id="5126"></path></symbol><symbol id="file-type-office" viewBox="0 0 1024 1024"><path d="M605.959068 243.242814l-0.928851 563.812461-411.538976-57.00822c9.404615-9.462668 21.363569-11.842848 34.948013-17.241794 11.726742-4.644254 20.899144-8.185498 32.451726-12.771699 22.46658-8.882136 45.745904-20.028346 66.761154-25.833664l0.058054-384.544249 278.24888-66.412835z m-420.943591 501.811668s3.599297 4.179829 7.140541 6.501955c3.947616 2.55434 5.050626 2.670446 9.462668 4.528148 6.618062 2.728499 13.52639 4.93452 20.608878 7.430807 14.223029 4.876467 26.240036 9.694881 40.579171 15.093826l243.823346 90.098532c108.211123 37.966778 77.036567 44.352628 167.135098 17.299847l129.284427-37.850672c23.279324-6.908328 33.43863-5.166733 35.934917-16.138783V191.923805c-4.702307-9.810987-2.322127-6.618062-16.893475-10.855944l-64.903452-18.693123c-28.446057-8.069392-56.892114-16.545156-86.150916-25.253132-31.290663-9.288508-56.717955-22.931005-85.744543-11.030104L185.015477 275.8687v469.185782z" fill="#d94b24" p-id="4224"></path></symbol><symbol id="file-type-pdf" viewBox="0 0 1024 1024"><defs><style type="text/css"></style></defs><path d="M179 64h468.5l223 225.5V935c0 13.807-11.193 25-25 25H179c-13.807 0-25-11.193-25-25V89c0-13.807 11.193-25 25-25z" fill="#FF4867" p-id="7072"></path><path d="M647.5 64v200.5c0 13.807 11.193 25 25 25h198L647.5 64z" fill="#FF97A9" p-id="7073"></path><path d="M691.919 812c-44.4 0-84.22-76.189-105.17-125.732-35.243-14.71-74.092-28.45-111.831-37.331-33.022 21.788-89.214 54.4-132.365 54.4-26.778 0-46.064-13.461-53.14-36.914-5.411-19.29-0.832-32.613 4.995-39.83 11.377-15.543 34.825-23.453 69.929-23.453 28.443 0 64.517 4.996 104.754 14.71 25.945-18.457 52.307-39.829 75.756-62.45-10.406-49.404-21.784-129.479 7.076-166.393 14.29-17.625 36.074-23.454 62.436-15.543 28.86 8.326 39.82 25.951 43.15 39.829 12.21 48.155-43.15 113.103-80.473 151.267 8.325 33.029 19.286 67.862 32.606 99.78 53.556 23.87 117.24 59.536 124.456 98.394 2.913 13.461-1.249 25.951-12.21 36.915-9.435 7.771-19.425 12.351-29.97 12.351zM652 728c9.768 21.74 19.081 32 23.99 32 0.76 0 1.823-0.333 3.341-1.664 1.822-1.996 1.822-3.327 1.518-4.547-1.012-5.713-9.262-15.085-28.849-25.789z m-281.922-88c-15.62 0-19.913 3.774-21.22 5.535-0.373 0.566-1.493 2.264-0.373 6.666 0.933 3.774 3.547 7.799 11.636 7.799 10.143 0 24.829-5.723 41.879-15.975-12.196-2.704-22.962-4.025-31.922-4.025zM523 620.582c9.333 2.6 19.01 5.951 28 9.418-3.264-8.551-5.898-17.449-8.13-26A629.121 629.121 0 0 1 523 620.582zM588.966 433c-3.32 0-5.649 1.229-7.745 3.511-6.173 7.783-6.872 27.386-2.097 52.489 18.111-19.427 27.953-37.275 25.507-46.813-0.35-1.404-1.398-5.676-9.842-8.134-2.33-0.702-4.076-1.053-5.823-1.053z" fill="#FFFFFF" p-id="7074"></path></symbol><symbol id="file-type-php" viewBox="0 0 1024 1024"><defs><style type="text/css"></style></defs><path d="M441.6 289.5872L371.2 649.6256h84.7872l39.9872-200.0384H563.2c31.1808 0 30.0544 12.9536 25.6 35.2256l-30.4128 164.8128h89.6l30.4128-182.4256c8.9088-44.544-18.3296-80.384-89.6-84.7872H508.7744l17.6128-92.8256H441.6zM120.0128 382.464L48.0256 743.936h84.7872l17.6128-94.4128H230.4c75.7248 4.5056 161.5872-57.856 161.5872-164.7616 0-62.3616-35.8912-97.9456-107.1616-102.4h-164.864z m588.8 0L636.8256 742.4h84.7872l17.6128-92.8256H819.2c75.7248 4.5056 160-57.856 160-164.7616 0-62.3616-34.304-97.9456-105.6256-102.4h-164.7616z m70.4 65.5872h57.6c31.1808 0 54.3744 13.312 54.3744 39.9872-4.4544 75.776-39.936 89.9584-79.9744 94.4128H756.736l22.4256-134.4z m-588.8 1.5872h59.1872c31.1808 0 52.7872 13.312 52.7872 39.9872-4.4544 75.776-39.936 89.9584-79.9744 94.4128H167.936l22.4256-134.4z" fill="#6C7EB7" p-id="5271"></path></symbol><symbol id="file-type-ppt" viewBox="0 0 1024 1024"><defs><style type="text/css"></style></defs><path d="M179 64h468.5l223 225.5V935c0 13.807-11.193 25-25 25H179c-13.807 0-25-11.193-25-25V89c0-13.807 11.193-25 25-25z" fill="#FF7861" p-id="6770"></path><path d="M647.5 64v200.5c0 13.807 11.193 25 25 25h198L647.5 64z" fill="#FFB0A4" p-id="6771"></path><path d="M670.098 478.093C677.884 486.056 682 497.51 682 514.5c0 16.989-4.116 28.444-11.902 36.407-8.313 8.504-22.397 14.822-43.202 18.093H318c-19.33 0-35 15.67-35 35v157c0 19.33 15.67 35 35 35s35-15.67 35-35V639h276.5a35 35 0 0 0 4.95-0.352C709.214 627.968 752 584.203 752 514.5s-42.786-113.468-117.55-124.148a35 35 0 0 0-4.95-0.352H318c-19.33 0-35 15.67-35 35s15.67 35 35 35h308.896c20.805 3.271 34.889 9.589 43.202 18.093z" fill="#FFFFFF" p-id="6772"></path></symbol><symbol id="file-type-pptx" viewBox="0 0 1024 1024"><defs><style type="text/css"></style></defs><path d="M179 64h468.5l223 225.5V935c0 13.807-11.193 25-25 25H179c-13.807 0-25-11.193-25-25V89c0-13.807 11.193-25 25-25z" fill="#FF7861" p-id="6770"></path><path d="M647.5 64v200.5c0 13.807 11.193 25 25 25h198L647.5 64z" fill="#FFB0A4" p-id="6771"></path><path d="M670.098 478.093C677.884 486.056 682 497.51 682 514.5c0 16.989-4.116 28.444-11.902 36.407-8.313 8.504-22.397 14.822-43.202 18.093H318c-19.33 0-35 15.67-35 35v157c0 19.33 15.67 35 35 35s35-15.67 35-35V639h276.5a35 35 0 0 0 4.95-0.352C709.214 627.968 752 584.203 752 514.5s-42.786-113.468-117.55-124.148a35 35 0 0 0-4.95-0.352H318c-19.33 0-35 15.67-35 35s15.67 35 35 35h308.896c20.805 3.271 34.889 9.589 43.202 18.093z" fill="#FFFFFF" p-id="6772"></path></symbol><symbol id="file-type-py" viewBox="0 0 1024 1024"><defs><style type="text/css"></style></defs><path d="M509.0304 104.5504c-207.9232 0-194.9696 90.1632-194.9696 90.1632l0.256 93.44h198.4512v28.0576H235.4688S102.4 301.056 102.4 510.9248c0 209.8688 116.1728 202.4448 116.1728 202.4448h69.2736V615.936S284.16 499.8144 402.176 499.8144h196.8128s110.592 1.792 110.592-106.8544v-179.712s16.7936-108.6976-200.5504-108.6976zM399.616 167.3728a35.6864 35.6864 0 1 1 0.0512 71.3216 35.6864 35.6864 0 0 1 0-71.3216z" fill="#387EB8" p-id="5420"></path><path d="M514.9696 919.4496c207.9232 0 194.9696-90.1632 194.9696-90.1632l-0.256-93.44H511.232v-28.0576h277.2992S921.6 722.944 921.6 513.0752c0-209.8688-116.1728-202.3936-116.1728-202.3936h-69.2736v97.3312s3.6864 116.1728-114.3296 116.1728H425.0112s-110.592-1.792-110.592 106.8544v179.712s-16.7936 108.6976 200.5504 108.6976z m109.4144-62.8224a35.6864 35.6864 0 1 1-0.0512-71.3216 35.6864 35.6864 0 0 1 0 71.3216z" fill="#FFE052" p-id="5421"></path></symbol><symbol id="file-type-rb" viewBox="0 0 1024 1024"><defs><style type="text/css"></style></defs><path d="M548.1984 154.7264l98.2016 64.512L588.8 404.736l-208.0256 193.6384-180.736 39.936-36.864-102.4L153.6 724.8384c3.9424 141.2608 105.4208 142.7968 148.7872 144.0256L300.8 870.4l568.0128-4.8128 4.7616-567.9616C876.6464 217.4976 786.7392 153.6 736.0512 153.6zM300.544 304.128C193.536 410.112 166.7072 507.904 219.648 561.2032c52.8896 53.4016 153.1904 10.4448 260.1472-95.5904 107.008-105.984 139.6224-205.312 86.7328-258.6624-83.968-71.3728-209.3056 34.7648-265.984 97.1264z" fill="#E53935" p-id="5570"></path></symbol><symbol id="file-type-root" viewBox="0 0 1024 1024"><defs><style type="text/css"></style></defs><path d="M190.01344 231.26016h642.85696c19.28192 0 32.14336 12.8512 32.14336 32.14336v482.14016H157.87008V263.40352c0-19.29216 12.8512-32.1536 32.14336-32.1536z" fill="#91D5FF" p-id="6089"></path><path d="M225.37216 102.68672h539.99616c19.28192 0 35.35872 16.0768 35.35872 32.14336 0 16.0768-16.0768 32.14336-35.35872 32.14336H225.37216c-19.29216 0-35.35872-16.0768-35.35872-32.1536 0-16.06656 16.0768-32.13312 35.35872-32.13312z" fill="#BAE7FF" p-id="6090"></path><path d="M109.64992 456.25344h202.50624l61.07136 141.43488h273.2032l73.9328-141.43488h192.86016c25.71264 0 48.22016 22.50752 48.22016 48.22016v385.71008c0 25.71264-22.50752 48.22016-48.22016 48.22016H109.64992C83.94752 938.3936 61.44 915.89632 61.44 890.18368V504.4736c3.21536-25.71264 22.49728-48.22016 48.20992-48.22016z" fill="#40A9FF" p-id="6091"></path><path d="M286.44352 745.54368h449.9968c19.28192 0 32.14336 12.86144 32.14336 32.14336 0 19.28192-12.86144 32.14336-32.14336 32.14336H286.44352c-19.29216 0-32.1536-12.86144-32.1536-32.1536 0-19.28192 12.86144-32.13312 32.1536-32.13312z" fill="#BAE7FF" p-id="6092"></path><path d="M190.01344 231.26016h642.85696c19.28192 0 32.14336 12.8512 32.14336 32.14336v482.14016H157.87008V263.40352c0-19.29216 12.8512-32.1536 32.14336-32.1536z" fill="#91D5FF" p-id="6093"></path><path d="M225.37216 102.68672h539.99616c19.28192 0 35.35872 16.0768 35.35872 32.14336 0 16.0768-16.0768 32.14336-35.35872 32.14336H225.37216c-19.29216 0-35.35872-16.0768-35.35872-32.1536 0-16.06656 16.0768-32.13312 35.35872-32.13312z" fill="#BAE7FF" p-id="6094"></path><path d="M109.64992 456.25344h202.50624l61.07136 141.43488h273.2032l73.9328-141.43488h192.86016c25.71264 0 48.22016 22.50752 48.22016 48.22016v385.71008c0 25.71264-22.50752 48.22016-48.22016 48.22016H109.64992C83.94752 938.3936 61.44 915.89632 61.44 890.18368V504.4736c3.21536-25.71264 22.49728-48.22016 48.20992-48.22016z" fill="#40A9FF" p-id="6095"></path><path d="M286.44352 745.54368h449.9968c19.28192 0 32.14336 12.86144 32.14336 32.14336 0 19.28192-12.86144 32.14336-32.14336 32.14336H286.44352c-19.29216 0-32.1536-12.86144-32.1536-32.1536 0-19.28192 12.86144-32.13312 32.1536-32.13312z" fill="#BAE7FF" p-id="6096"></path></symbol><symbol id="file-type-rpm" viewBox="0 0 1024 1024"><defs><style type="text/css"></style></defs><path d="M405.882438 283.066c16.682597-2.556204 33.499731-4.439723 50.451402-5.381483 2.959816-0.672685 6.054168-0.538148 9.148521-0.672685 23.947599-0.672685 47.895198-0.672685 71.842797 0.403611a623.041182 623.041182 0 0 1 127.944755 22.198617l-0.201805 0.269074c-6.054168 8.27403-12.242874 16.480791-18.162505 24.889358-1.883519 0.269074-3.430695-0.874491-5.04514-1.412639a379.058201 379.058201 0 0 0-99.153823-24.754821 409.261774 409.261774 0 0 0-166.287821 16.07718c-39.419362 12.713753-77.358817 32.288897-106.755167 61.954322-20.853246 21.256857-36.795889 48.769689-39.015751 78.973261-2.018056 14.328198 1.479908 28.723665 4.506992 42.648252l-132.048136 23.274914a157.677449 157.677449 0 0 1 15.471763-67.403074c19.238801-41.033807 52.603995-73.860853 89.803496-98.884748a409.329042 409.329042 0 0 1 80.520438-41.639224 529.806991 529.806991 0 0 1 116.979984-30.539915zM484.990236 445.788589c2.556204-4.237918 7.130465-7.601345 12.310143-6.928659 5.852363 0.134537 10.359355 4.977872 11.570188 10.426623l412.759737 73.389973-1.34537 6.928659L507.525196 457.291509c-3.363427 5.717826-10.964771 8.677641-16.951671 5.246945-4.170649-1.81625-5.583288-6.255974-7.399539-9.955743l-25.427507-4.036112 1.143565-7.197733 26.032924 4.439723zM102.366803 542.318938c24.283942-0.201806 48.567883 0 72.784556-0.067268l0.134537 3.565232c17.624356-3.834307 35.719593-5.448751 53.747561-4.439723 13.117365 1.143565 25.158433 6.794122 36.930426 12.37741-13.251902 8.206761-26.705609 16.07718-39.688436 24.754822-14.328198-11.166577-33.903342-11.166577-50.653208-6.255974a51.124087 51.124087 0 0 0-0.47088 5.381483v125.254014H102.568609c-0.134537-53.545755 0-107.09151-0.134537-160.569996zM291.122315 542.318938c21.391394-0.201806 42.71552 0 64.106915-0.067268 31.616212-0.201806 63.837841 3.901575 93.234191 16.07718 18.297042 7.735882 35.921398 19.171533 46.549827 36.325009 8.072224 13.453707 10.830234 30.539915 4.506992 45.204457-7.399539 17.489819-23.274914 29.732693-39.419362 38.813945-29.598156 15.808106-62.559739 24.216673-96.059469 25.696581v33.09612l-72.919094 10.023011v-205.169035zM550.106179 542.318938c83.412985-0.269074 166.691433 0 250.104418-0.067268 24.35121 0.067269 49.106031 0.201806 72.851824 6.525048 6.861391 2.28713 15.942643 4.910603 17.758894 12.84829 0.134537 47.087975 0 94.175951 0 141.263926h-72.717288c0-46.684364-0.134537-93.435997 0-140.120361-4.372455-3.834307-10.695697-3.699769-16.144448-4.372455-14.933615-0.336343-29.934499-0.067269-44.868114-0.134537v144.627353H684.105103V587.052515c-0.269074-8.475836 0.403611-16.951671-0.403611-25.360238a56.169228 56.169228 0 0 0-21.660468-3.430696h-39.015751l-0.067269 144.627353H549.904374c0.403611-53.142144 0.067269-107.293315 0.134537-160.569996z" p-id="5719"></path><path d="M646.838334 324.705224l18.229774-24.889358c55.967422 16.413523 110.051325 42.379178 154.179484 80.924048 18.095236 16.144449 34.44149 34.44149 46.953439 55.227469 14.799078 24.485747 24.216673 52.536727 25.292969 81.260391l-131.711793-23.073108a106.284287 106.284287 0 0 0 1.748981-53.411217c-6.861391-30.270841-26.234729-56.371033-49.778716-76.080715a246.404648 246.404648 0 0 0-65.385017-39.284825l0.470879-0.672685z" fill="#D72123" p-id="5720"></path><path d="M364.108677 559.943295c18.633385 1.883519 35.517787 12.444679 48.23154 25.763849 11.03204 11.570188 18.83519 27.714637 16.144449 43.926354-2.959816 16.278986-14.328198 29.530887-27.041951 39.352094-11.03204 8.072224-23.543988 15.135421-37.334038 16.951671V559.943295z" fill="#FFFFFF" p-id="5721"></path></symbol><symbol id="file-type-rust" viewBox="0 0 1024 1024"><defs><style type="text/css"></style></defs><path d="M921.6 506.88l-35.84-20.48v-5.12l30.72-30.72s5.12-10.24 5.12-15.36c0-5.12-5.12-5.12-5.12-5.12l-40.96-15.36V409.6l20.48-35.84V358.4c0-5.12-5.12-5.12-5.12-5.12l-46.08-10.24s0-5.12-5.12-5.12l15.36-35.84v-15.36l-5.12-5.12h-40.96l-5.12-5.12v-40.96-15.36s-5.12-5.12-15.36 0l-40.96 5.12-5.12-5.12v-40.96c0-5.12 0-5.12-5.12-5.12h-15.36l-35.84 15.36s-5.12 0-5.12-5.12l-10.24-46.08c0-5.12 0-5.12-5.12-5.12h-15.36L614.4 153.6h-5.12l-15.36-35.84c0-5.12-5.12-5.12-5.12-5.12-5.12 0-5.12 0-15.36 5.12l-25.6 25.6h-5.12l-25.6-35.84c0-5.12-5.12-5.12-5.12-5.12-5.12 0-5.12 0-5.12 5.12l-20.48 35.84h-5.12l-30.72-25.6s-5.12-5.12-15.36-5.12c-5.12 0-5.12 5.12-5.12 5.12l-15.36 30.72H409.6l-35.84-20.48H358.4c-5.12 0-5.12 5.12-5.12 5.12l-10.24 46.08s-5.12 0-5.12 5.12l-35.84-10.24h-15.36l-5.12 5.12v40.96l-5.12 5.12-40.96-5.12h-15.36s-5.12 5.12 0 15.36l5.12 40.96-5.12 5.12h-40.96c-5.12 0-5.12 0-5.12 5.12v15.36l15.36 35.84s0 5.12-5.12 5.12l-46.08 10.24c-5.12 0-5.12 0-5.12 5.12v15.36L153.6 409.6v5.12l-35.84 15.36c-5.12 0-5.12 5.12-5.12 5.12 0 5.12 0 5.12 5.12 15.36l25.6 25.6v5.12l-35.84 25.6c-5.12 0-5.12 5.12-5.12 5.12 0 5.12 0 5.12 5.12 5.12l35.84 20.48v5.12l-25.6 25.6s-5.12 5.12-5.12 15.36c0 5.12 5.12 5.12 5.12 5.12l35.84 15.36v5.12l-20.48 35.84v15.36c0 5.12 5.12 5.12 5.12 5.12l40.96 5.12s0 5.12 5.12 5.12l-15.36 35.84v15.36l5.12 5.12h40.96l5.12 5.12-5.12 40.96v15.36s5.12 5.12 15.36 0l40.96-5.12 5.12 5.12v40.96c0 5.12 0 5.12 5.12 5.12h15.36l35.84-15.36s5.12 0 5.12 5.12l5.12 40.96c0 5.12 0 5.12 5.12 5.12h15.36l35.84-20.48h5.12l15.36 35.84c0 5.12 5.12 5.12 5.12 5.12 5.12 0 5.12 0 15.36-5.12l25.6-25.6h5.12l20.48 35.84 20.48 20.48c5.12 0 5.12 0 5.12-5.12l20.48-35.84h5.12l25.6 25.6s5.12 5.12 15.36 5.12c5.12 0 5.12-5.12 5.12-5.12l15.36-35.84h5.12l35.84 20.48h15.36c5.12 0 5.12-5.12 5.12-5.12l5.12-40.96s5.12 0 5.12-5.12l35.84 15.36h15.36l5.12-5.12v-40.96l5.12-5.12 40.96 5.12h15.36s5.12-5.12 0-15.36l-5.12-40.96 5.12-5.12h40.96c5.12 0 5.12 0 5.12-5.12v-15.36l-15.36-35.84s0-5.12 5.12-5.12l40.96-5.12c5.12 0 5.12 0 5.12-5.12v-15.36l-20.48-35.84v-5.12l35.84-15.36c5.12 0 5.12-5.12 5.12-5.12 0-5.12 0-5.12-5.12-15.36l-25.6-25.6v-5.12l35.84-20.48c20.48-15.36 20.48-20.48 20.48-20.48 0-5.12 0-5.12-5.12-5.12z m-230.4 286.72c-15.36 0-20.48-15.36-20.48-25.6 0-15.36 15.36-20.48 25.6-20.48 15.36 0 20.48 15.36 20.48 25.6 0 15.36-15.36 20.48-25.6 20.48z m-15.36-76.8c-15.36 0-20.48 5.12-25.6 15.36l-15.36 56.32c-30.72 10.24-76.8 20.48-122.88 20.48-40.96 0-92.16-5.12-122.88-25.6l-15.36-56.32c0-15.36-15.36-20.48-25.6-15.36l-51.2 15.36c-5.12-15.36-15.36-25.6-20.48-35.84h245.76v-81.92H445.44v-56.32h76.8c5.12 0 35.84 0 46.08 40.96 0 15.36 5.12 46.08 15.36 61.44 5.12 15.36 20.48 40.96 40.96 40.96h128c-5.12 15.36-20.48 20.48-25.6 35.84l-56.32-20.48z m-337.92 76.8c-15.36 0-25.6-5.12-25.6-20.48 0-15.36 5.12-25.6 20.48-25.6 15.36 0 25.6 5.12 25.6 20.48 0 15.36-5.12 25.6-20.48 25.6zM245.76 414.72c5.12 15.36 0 25.6-15.36 35.84-15.36 5.12-25.6 0-35.84-15.36-5.12-15.36 0-25.6 15.36-35.84 15.36-5.12 25.6 0 35.84 15.36z m-25.6 71.68l56.32-20.48c15.36-10.24 15.36-25.6 15.36-30.72L276.48 409.6h40.96v194.56H235.52c-10.24-30.72-15.36-56.32-15.36-87.04v-35.84z m230.4-20.48V409.6h102.4c5.12 0 35.84 5.12 35.84 25.6s-20.48 25.6-40.96 25.6H455.68z m368.64 46.08v20.48h-25.6s-5.12 0-5.12 5.12v15.36c0 35.84-20.48 40.96-35.84 40.96-15.36 0-35.84-5.12-35.84-15.36-5.12-46.08-25.6-61.44-46.08-81.92 25.6-20.48 61.44-46.08 61.44-81.92 0-40.96-25.6-71.68-46.08-76.8-35.84-20.48-61.44-20.48-71.68-20.48H296.96c40.96-46.08 102.4-81.92 168.96-97.28l35.84 40.96c5.12 5.12 20.48 5.12 35.84 0l40.96-40.96c92.16 15.36 158.72 71.68 199.68 143.36l-25.6 61.44c-5.12 15.36 0 20.48 15.36 25.6l56.32 25.6v25.6zM496.64 184.32c5.12-5.12 25.6-5.12 35.84 0 5.12 5.12 5.12 25.6 0 35.84-5.12 5.12-25.6 5.12-35.84 0-5.12-5.12-5.12-25.6 0-35.84z m286.72 230.4c5.12-15.36 20.48-20.48 35.84-15.36 10.24 10.24 20.48 20.48 10.24 35.84-5.12 15.36-20.48 20.48-30.72 15.36-15.36-10.24-20.48-20.48-15.36-35.84z" fill="#795548" p-id="6019"></path></symbol><symbol id="file-type-script" viewBox="0 0 1024 1024"><defs><style type="text/css"></style></defs><path d="M440.0128 153.6L409.6 260.8128l-59.1872 36.7616-113.6128-23.9616-71.9872 118.3744 83.2 84.8384v70.3488l-83.2 84.8384 71.9872 118.3744 113.6128-24.0128 59.1872 36.864L440.0128 870.4h143.9744l35.2256-107.2128 54.3744-36.8128 113.6128 24.064 71.9872-118.4256-78.3872-84.7872V476.7744l78.3872-84.7872-71.9872-118.3744-113.6128 23.9616-54.3744-36.7616L583.9872 153.6H440.0128zM512 384a128 128 0 1 1 0 256 128 128 0 0 1 0-256z" fill="#1976D2" p-id="6317"></path></symbol><symbol id="file-type-text" viewBox="0 0 1039 1024"><path d="M507.178908 944.934087H289.265537c-84.851224 0-154.274953-69.423729-154.274953-154.274953v-539.962336c0-84.851224 69.423729-154.274953 154.274953-154.274952h462.824858c84.851224 0 154.274953 69.423729 154.274953 154.274952V678.809793c0 21.212806-17.355932 38.568738-38.568738 38.568738s-38.568738-17.355932-38.568738-38.568738v-428.112995c0-42.425612-34.711864-77.137476-77.137477-77.137476h-462.824858c-42.425612 0-77.137476 34.711864-77.137477 77.137476v539.962336c0 42.425612 34.711864 77.137476 77.137477 77.137476h217.913371c21.212806 0 38.568738 17.355932 38.568738 38.568738s-17.355932 38.568738-38.568738 38.568739z" fill="#388CEB" p-id="6175"></path><path d="M713.521657 347.118644h-385.687382c-21.212806 0-38.568738-17.355932-38.568738-38.568738s17.355932-38.568738 38.568738-38.568738h385.687382c21.212806 0 38.568738 17.355932 38.568738 38.568738s-17.355932 38.568738-38.568738 38.568738zM713.521657 501.393597h-385.687382c-21.212806 0-38.568738-17.355932-38.568738-38.568738s17.355932-38.568738 38.568738-38.568738h385.687382c21.212806 0 38.568738 17.355932 38.568738 38.568738s-17.355932 38.568738-38.568738 38.568738z" fill="#E78E00" p-id="6176"></path><path d="M690.380414 925.649718h-15.427495c-63.638418 0-115.706215-52.067797-115.706215-115.706215v-115.706215c0-63.638418 52.067797-115.706215 115.706215-115.706215h115.706215c63.638418 0 115.706215 52.067797 115.706214 115.706215v15.427495l-215.984934 215.984935z m-15.427495-269.981168c-21.212806 0-38.568738 17.355932-38.568738 38.568738v115.706215c0 17.355932 9.642185 30.854991 25.06968 36.640301l165.845574-165.845574c-5.785311-15.427495-19.284369-25.06968-36.640301-25.06968h-115.706215z" fill="#388CEB" p-id="6177"></path></symbol><symbol id="file-type-three3d" viewBox="0 0 1024 1024">
    <path d="M896 704c0 16.213333-8.96 30.293333-22.613333 37.546667l-337.066667 189.44c-6.826667 5.12-15.36 7.68-24.32 7.68s-17.493333-2.56-24.32-7.68l-337.066667-189.44A42.282667 42.282667 0 0 1 128 704v-384c0-16.213333 8.96-30.293333 22.613333-37.546667l337.066667-189.44c6.826667-5.12 15.36-7.68 24.32-7.68s17.493333 2.56 24.32 7.68l337.066667 189.44c13.653333 7.253333 22.613333 21.333333 22.613333 37.546667v384M512 177.066667L257.706667 320 512 462.933333l254.293333-142.933333L512 177.066667M213.333333 678.826667l256 144.213333v-286.293333L213.333333 392.96v285.866667m597.333334 0v-285.866667l-256 143.786667v286.293333z"
          fill="#29B6F6" p-id="15193"></path>
</symbol><symbol id="file-type-vbs" viewBox="0 0 1024 1024"><path d="M62.464 186.368v30.72l-34.816 13.312v-30.72c1.024 2.048 34.816-13.312 34.816-13.312z m0 286.72v30.72l-34.816 13.312v-29.696c1.024 1.024 34.816-14.336 34.816-14.336z m0 290.816v30.72L27.648 808.96v-29.696c1.024 1.024 34.816-15.36 34.816-15.36z m-3.072-481.28v27.648l-29.696 12.288v-27.648c0 2.048 29.696-12.288 29.696-12.288z m0 97.28v27.648l-27.648 10.24v-27.648l27.648-10.24z m0 193.536v27.648l-29.696 12.288V583.68c0 2.048 29.696-10.24 29.696-10.24z m0 96.256v27.648l-29.696 12.288v-25.6l29.696-14.336z m88.064-463.872v35.84l-47.104 15.36v-34.816l47.104-16.384z m0 289.792v34.816l-47.104 17.408v-34.816l47.104-17.408z m0 291.84v34.816L100.352 839.68v-34.816l47.104-17.408z m-2.048-482.304V337.92l-37.888 13.312v-32.768l37.888-13.312z m0 97.28v32.768l-37.888 14.336v-32.768l37.888-14.336z m0 193.536v32.768l-37.888 13.312v-32.768l37.888-13.312z m0 96.256v32.768l-37.888 13.312V706.56l37.888-14.336z m92.16-465.92v41.984l-60.416 22.528v-41.984l60.416-22.528z m0 289.792v41.984l-60.416 22.528v-41.984l60.416-22.528z m0 286.72v43.008l-60.416 22.528v-43.008l60.416-22.528z m-4.096-476.16v37.888l-50.176 19.456V348.16c0 1.024 50.176-21.504 50.176-21.504z m0 96.256v35.84l-50.176 19.456v-35.84l50.176-19.456z m0 193.536v35.84l-50.176 19.456v-35.84l50.176-19.456z m0 93.184V747.52l-50.176 19.456v-35.84l50.176-21.504z m98.304-485.376v53.248l-75.776 30.72v-53.248l75.776-30.72z m0 290.816v53.248l-75.776 30.72v-53.248l75.776-30.72z m0 286.72v53.248l-75.776 30.72v-53.248l75.776-30.72z m-3.072-477.184v50.176L266.24 397.312v-48.128l62.464-24.576z m0 96.256v48.128L266.24 497.664v-50.176l62.464-26.624z m0 193.536v50.176L266.24 691.2v-50.176l62.464-26.624z m0 94.208v50.176L266.24 780.288v-48.128c0 2.048 62.464-23.552 62.464-23.552z m102.4-492.544v69.632l-84.992 34.816v-69.632l84.992-34.816z m0 289.792v69.632l-84.992 34.816v-69.632l84.992-34.816z m0 286.72v69.632l-84.992 34.816v-69.632l84.992-34.816z m-4.096-471.04v58.368L358.4 409.6v-58.368l68.608-29.696z m0 91.136V471.04L358.4 500.736v-58.368l68.608-29.696z m0 196.608v58.368l-74.752 29.696v-58.368l74.752-29.696z m0 95.232v58.368L358.4 792.576v-58.368l68.608-29.696zM532.48 179.2V276.48l-90.112 37.888v-90.112c31.744-17.408 62.464-34.816 90.112-45.056z m0 105.472v84.992l-88.064 37.888v-84.992l88.064-37.888z m0 95.232v84.992l-90.112 37.888v-84.992l90.112-37.888z m0 95.232v84.992l-88.064 37.888v-84.992l88.064-37.888z m0 93.184v86.016l-90.112 37.888V604.16l90.112-35.84z m0 96.256v84.992l-90.112 39.936v-86.016c2.048 0 90.112-38.912 90.112-38.912z m0 95.232V849.92c-35.84 12.288-63.488 27.648-90.112 39.936V798.72c2.048-1.024 90.112-38.912 90.112-38.912z m462.848-578.56v676.864c-57.344-37.888-130.048-55.296-212.992-55.296-69.632 0-150.528 14.336-238.592 43.008v-91.136c47.104-17.408 98.304-32.768 153.6-39.936V497.664c-47.104 5.12-98.304 20.48-153.6 48.128v-62.464c48.128-20.48 98.304-37.888 153.6-45.056V222.208c-48.128 8.192-100.352 27.648-153.6 50.176v-95.232c79.872-34.816 153.6-50.176 229.376-50.176 80.896-1.024 155.648 16.384 222.208 54.272z m-91.136 58.368c-37.888-17.408-80.896-29.696-133.12-29.696-5.12 0-10.24 0-17.408 2.048v219.136h19.456c45.056 0 88.064 7.168 131.072 19.456V239.616z m0 276.48c-39.936-15.36-84.992-27.648-131.072-27.648-5.12 0-12.288 0-17.408 2.048v221.184h19.456c48.128 0 91.136 5.12 131.072 17.408V516.096h-2.048zM962.56 887.808v-13.312h-5.12V870.4h14.336v2.048h-5.12v15.36H962.56z m14.336 0V870.4h3.072l5.12 12.288 5.12-12.288h3.072v17.408h-2.048v-13.312l-5.12 14.336H983.04l-5.12-12.288V890.88h-2.048l1.024-3.072z" fill="#90C9C4" p-id="24742"></path></symbol><symbol id="file-type-video" viewBox="0 0 1024 1024"><path d="M928.508 954.808H95.494c-52.652 0-95.486-42.836-95.486-95.486V164.678c0-52.652 42.836-95.486 95.486-95.486h833.014c52.652 0 95.486 42.836 95.486 95.486 0 15.282-12.39 27.674-27.674 27.674s-27.674-12.392-27.674-27.674c0-22.132-18.006-40.136-40.136-40.136H95.494c-22.132 0-40.136 18.006-40.136 40.136v694.644c0 22.132 18.006 40.136 40.136 40.136h833.014c22.132 0 40.136-18.006 40.136-40.136V488.02c0-15.282 12.39-27.674 27.674-27.674s27.674 12.392 27.674 27.674v371.3c0.002 52.654-42.834 95.488-95.484 95.488z" fill="#2D527C" p-id="31679"></path><path d="M27.686 164.676v139.764h968.636V164.676c0-37.452-30.36-67.812-67.812-67.812H95.496c-37.448 0-67.81 30.362-67.81 67.812z" fill="#CEE8FA" p-id="31680"></path><path d="M996.324 332.114H27.688c-15.284 0-27.674-12.392-27.674-27.674V164.68c0-52.652 42.836-95.486 95.486-95.486h833.014C981.166 69.194 1024 112.03 1024 164.68v139.764c0 15.28-12.39 27.67-27.676 27.67zM55.362 276.764h913.286V164.678c0-22.132-18.006-40.136-40.136-40.136H95.5c-22.132 0-40.136 18.006-40.136 40.136l-0.002 112.086z" fill="#2D527C" p-id="31681"></path><path d="M27.674 332.002a27.592 27.592 0 0 1-19.568-8.106c-10.808-10.808-10.808-28.33 0-39.14L215.556 77.304c10.808-10.804 28.33-10.804 39.14 0 10.808 10.808 10.808 28.33 0 39.14L47.246 323.896a27.6 27.6 0 0 1-19.572 8.106zM410.39 332.112a27.586 27.586 0 0 1-19.568-8.106c-10.808-10.804-10.81-28.328 0-39.138L598.354 77.306c10.804-10.81 28.328-10.812 39.138-0.002 10.808 10.804 10.81 28.328 0 39.138l-207.534 207.56a27.57 27.57 0 0 1-19.568 8.11zM793.16 332.112a27.592 27.592 0 0 1-19.568-8.106c-10.808-10.808-10.808-28.33 0-39.14l185.452-185.45c10.808-10.804 28.328-10.802 39.138 0 10.808 10.808 10.808 28.33 0 39.14l-185.45 185.45a27.596 27.596 0 0 1-19.572 8.106z" fill="#2D527C" p-id="31682"></path><path d="M405.46 451.772l268.436 159.264-268.436 159.26z" fill="#CEE8FA" p-id="31683"></path><path d="M405.46 797.974a27.676 27.676 0 0 1-27.676-27.674V451.772c0-9.946 5.338-19.126 13.982-24.046a27.662 27.662 0 0 1 27.816 0.246l268.434 159.264a27.678 27.678 0 0 1 0 47.608l-268.434 159.264a27.726 27.726 0 0 1-14.122 3.866z m27.676-297.604V721.7l186.524-110.664-186.524-110.666z" fill="#2D527C" p-id="31684"></path></symbol><symbol id="file-type-xls" viewBox="0 0 1024 1024"><defs><style type="text/css"></style></defs><path d="M179 64h468.5l223 225.5V935c0 13.807-11.193 25-25 25H179c-13.807 0-25-11.193-25-25V89c0-13.807 11.193-25 25-25z" fill="#00C090" p-id="6618"></path><path d="M647.5 64v200.5c0 13.807 11.193 25 25 25h198L647.5 64z" fill="#68DBBF" p-id="6619"></path><path d="M677.007 388.282L297.22 769.07c-13.65 13.685-13.623 35.846 0.062 49.497 13.685 13.652 35.846 13.624 49.498-0.061l379.786-380.787c13.652-13.685 13.624-35.846-0.061-49.498-13.686-13.65-35.846-13.623-49.498 0.062z" fill="#FFFFFF" p-id="6620"></path><path d="M297.22 436.718l379.787 380.787c13.652 13.685 35.812 13.713 49.498 0.061 13.685-13.651 13.713-35.812 0.061-49.497L346.78 387.282c-13.652-13.685-35.813-13.713-49.498-0.062-13.685 13.652-13.713 35.813-0.062 49.498z" fill="#FFFFFF" p-id="6621"></path></symbol><symbol id="file-type-xlsx" viewBox="0 0 1024 1024"><defs><style type="text/css"></style></defs><path d="M179 64h468.5l223 225.5V935c0 13.807-11.193 25-25 25H179c-13.807 0-25-11.193-25-25V89c0-13.807 11.193-25 25-25z" fill="#00C090" p-id="6618"></path><path d="M647.5 64v200.5c0 13.807 11.193 25 25 25h198L647.5 64z" fill="#68DBBF" p-id="6619"></path><path d="M677.007 388.282L297.22 769.07c-13.65 13.685-13.623 35.846 0.062 49.497 13.685 13.652 35.846 13.624 49.498-0.061l379.786-380.787c13.652-13.685 13.624-35.846-0.061-49.498-13.686-13.65-35.846-13.623-49.498 0.062z" fill="#FFFFFF" p-id="6620"></path><path d="M297.22 436.718l379.787 380.787c13.652 13.685 35.812 13.713 49.498 0.061 13.685-13.651 13.713-35.812 0.061-49.497L346.78 387.282c-13.652-13.685-35.813-13.713-49.498-0.062-13.685 13.652-13.713 35.813-0.062 49.498z" fill="#FFFFFF" p-id="6621"></path></symbol><symbol id="file-type-xml" viewBox="0 0 1024 1024"><path d="M332.799002 686.081014m-332.799002 0a332.799002 332.799002 0 1 0 665.598003 0 332.799002 332.799002 0 1 0-665.598003 0Z" fill="#F4EFC9" p-id="4532"></path><path d="M883.19735 1024h-639.99808A141.055577 141.055577 0 0 1 102.399693 883.200422v-742.397772A141.055577 141.055577 0 0 1 243.19927 0.003072h516.350451a89.087733 89.087733 0 0 1 63.231811 25.599923l189.695431 189.695431A38.399885 38.399885 0 0 1 1023.996928 243.202342v639.99808a141.055577 141.055577 0 0 1-140.799578 140.799578zM243.19927 76.802842A63.999808 63.999808 0 0 0 179.199462 140.80265v742.397772A63.999808 63.999808 0 0 0 243.19927 947.20023h639.99808a63.999808 63.999808 0 0 0 63.999808-63.999808V259.074295l-179.199462-179.199463a12.799962 12.799962 0 0 0-8.447975-3.07199z" fill="#434260" p-id="4533"></path><path d="M331.007007 508.417547l-60.671818-109.311672h39.423882l27.391918 52.735841c5.631983 10.495969 10.495969 20.479939 17.151948 34.047898h1.535995c5.887982-13.567959 10.239969-23.551929 15.359954-34.047898l25.599924-52.735841H435.198694l-60.671818 111.103666 65.023805 114.943656h-39.423881l-29.695911-56.063832-18.687944-36.86389c-6.399981 13.823959-12.031964 25.599923-17.407948 36.86389l-28.927913 56.063832H266.239201zM474.110578 399.105875h40.959877L556.54233 512.001536c5.119985 15.103955 9.727971 30.463909 15.103955 45.823863h1.535995c5.119985-15.359954 9.471972-30.719908 14.847956-45.823863l40.959877-114.175657h41.215876v226.047321h-33.535899V512.001536c0-20.223939 2.815992-49.407852 4.607986-69.88779l-18.175945 51.199846-39.423882 107.775677h-22.015934l-39.679881-107.775677-17.919946-51.199846c1.535995 20.479939 4.351987 49.663851 4.351987 69.88779v111.871664h-34.303897zM729.085813 399.105875h35.583893v195.839412h95.487714v30.20791h-131.071607z" fill="#434260" p-id="4534"></path></symbol><symbol id="file-type-yaml" viewBox="0 0 1024 1024"><defs><style type="text/css"></style></defs><path d="M178.086957 545.391304L111.304348 400.695652h57.878261l17.808695 48.973913c6.678261 17.808696 11.130435 33.391304 17.808696 48.973913h2.226087c6.678261-17.808696 13.356522-33.391304 17.808696-48.973913l17.808695-48.973913h55.652174l-66.782609 144.695652V623.304348H178.086957v-77.913044z" fill="#71C1ED" p-id="7223"></path><path d="M418.504348 572.104348h-66.782609l-11.130435 51.2h-53.426087L356.173913 400.695652h64.556522L489.73913 623.304348h-55.652173l-15.582609-51.2z m-8.904348-42.295652l-6.678261-17.808696c-6.678261-22.26087-11.130435-48.973913-17.808696-71.234783h-2.226086c-4.452174 22.26087-11.130435 48.973913-17.808696 71.234783l-4.452174 17.808696h48.973913z" fill="#495FA5" p-id="7224"></path><path d="M512 400.695652h57.878261l35.617391 95.721739 13.356522 40.069566h2.226087c4.452174-13.356522 8.904348-28.93913 13.356522-40.069566L667.826087 400.695652h57.878261v222.608696h-48.973913v-75.686957c0-22.26087 4.452174-55.652174 6.678261-77.913043h-2.226087l-17.808696 53.426087-28.93913 82.365217H601.043478l-31.165217-82.365217-17.808696-53.426087h-2.226087c2.226087 22.26087 6.678261 55.652174 6.678261 77.913043V623.304348h-44.521739V400.695652zM774.678261 400.695652h53.426087v178.086957h86.817391v44.521739h-140.243478V400.695652z" fill="#71C1ED" p-id="7225"></path></symbol></svg>
